<?xml version="1.0" encoding="UTF-8" standalone="no"?>
<!DOCTYPE svg PUBLIC "-//W3C//DTD SVG 1.1//EN"
 "http://www.w3.org/Graphics/SVG/1.1/DTD/svg11.dtd">
<!-- Generated by graphviz version 2.50.0 (0)
 -->
<!-- Pages: 1 -->
<svg width="498pt" height="950pt"
 viewBox="0.00 0.00 498.00 950.00" xmlns="http://www.w3.org/2000/svg" xmlns:xlink="http://www.w3.org/1999/xlink">
<g id="graph0" class="graph" transform="scale(1 1) rotate(0) translate(4 946)">
<polygon fill="lightblue" stroke="transparent" points="-4,4 -4,-946 494,-946 494,4 -4,4"/>
<g id="clust1" class="cluster">
<title>cluster_5</title>
<polygon fill="lightblue" stroke="black" points="8,-227 8,-498 206,-498 206,-227 8,-227"/>
</g>
<g id="clust2" class="cluster">
<title>cluster_1</title>
<polygon fill="lightblue" stroke="black" points="304,-8 304,-498 482,-498 482,-8 304,-8"/>
</g>
<g id="clust3" class="cluster">
<title>cluster_2</title>
<polygon fill="lightblue" stroke="black" points="340,-81 340,-352 446,-352 446,-81 340,-81"/>
</g>
<!-- assign4 -->
<g id="node1" class="node clickable 5 testfile2.py">
<title>assign4</title>
<polygon fill="none" stroke="black" points="197.5,-490 16.5,-490 16.5,-454 197.5,-454 197.5,-490"/>
<text text-anchor="middle" x="107" y="-468.3" font-family="Times New Roman,serif" font-size="14.00">result = subtract(num2,num1)</text>
</g>
<!-- subtract -->
<g id="node2" class="node invis&#45;node invis&#45;node_5">
<title>subtract</title>
<polygon fill="none" stroke="black" points="149.62,-394.99 141.18,-410.22 107,-417 72.82,-410.22 64.38,-394.99 88.03,-382.78 125.97,-382.78 149.62,-394.99"/>
<text text-anchor="middle" x="107" y="-395.3" font-family="Times New Roman,serif" font-size="14.00">subtract</text>
</g>
<!-- assign4&#45;&gt;subtract -->
<g id="edge1" class="edge invis&#45;edge invis&#45;edge_5">
<title>assign4&#45;&gt;subtract</title>
<path fill="none" stroke="black" d="M107,-453.81C107,-445.79 107,-436.05 107,-427.07"/>
<polygon fill="black" stroke="black" points="110.5,-427.03 107,-417.03 103.5,-427.03 110.5,-427.03"/>
</g>
<!-- expr2 -->
<g id="node18" class="node">
<title>expr2</title>
<polygon fill="none" stroke="black" points="295.5,-417 214.5,-417 214.5,-381 295.5,-381 295.5,-417"/>
<text text-anchor="middle" x="255" y="-395.3" font-family="Times New Roman,serif" font-size="14.00">print(result)</text>
</g>
<!-- assign4&#45;&gt;expr2 -->
<g id="edge18" class="edge">
<title>assign4&#45;&gt;expr2</title>
<path fill="none" stroke="black" d="M142.45,-453.99C162.8,-444.23 188.55,-431.88 210.29,-421.45"/>
<polygon fill="black" stroke="black" points="211.82,-424.59 219.33,-417.11 208.8,-418.28 211.82,-424.59"/>
</g>
<!-- assign5 -->
<g id="node3" class="node invis&#45;node invis&#45;node_5">
<title>assign5</title>
<polygon fill="none" stroke="black" points="135.5,-344 78.5,-344 78.5,-308 135.5,-308 135.5,-344"/>
<text text-anchor="middle" x="107" y="-322.3" font-family="Times New Roman,serif" font-size="14.00">n &#45;= n2</text>
</g>
<!-- subtract&#45;&gt;assign5 -->
<g id="edge2" class="edge invis&#45;edge invis&#45;edge_5">
<title>subtract&#45;&gt;assign5</title>
<path fill="none" stroke="black" d="M107,-382.59C107,-374.36 107,-363.97 107,-354.4"/>
<polygon fill="black" stroke="black" points="110.5,-354.12 107,-344.12 103.5,-354.12 110.5,-354.12"/>
</g>
<!-- assign6 -->
<g id="node4" class="node invis&#45;node invis&#45;node_5">
<title>assign6</title>
<ellipse fill="none" stroke="black" cx="107" cy="-253" rx="28.7" ry="18"/>
<text text-anchor="middle" x="107" y="-249.3" font-family="Times New Roman,serif" font-size="14.00">END</text>
</g>
<!-- assign5&#45;&gt;assign6 -->
<g id="edge3" class="edge invis&#45;edge invis&#45;edge_5">
<title>assign5&#45;&gt;assign6</title>
<path fill="none" stroke="black" d="M107,-307.81C107,-299.79 107,-290.05 107,-281.07"/>
<polygon fill="black" stroke="black" points="110.5,-281.03 107,-271.03 103.5,-281.03 110.5,-281.03"/>
</g>
<!-- expr0 -->
<g id="node5" class="node clickable 2 file3.py invis&#45;node_3">
<title>expr0</title>
<polygon fill="none" stroke="black" points="422.5,-344 363.5,-344 363.5,-308 422.5,-308 422.5,-344"/>
<text text-anchor="middle" x="393" y="-322.3" font-family="Times New Roman,serif" font-size="14.00">yazdir()</text>
</g>
<!-- yazdir -->
<g id="node6" class="node invis&#45;node invis&#45;node_2 invis&#45;node_3">
<title>yazdir</title>
<polygon fill="none" stroke="black" points="429.14,-248.99 421.98,-264.22 393,-271 364.02,-264.22 356.86,-248.99 376.92,-236.78 409.08,-236.78 429.14,-248.99"/>
<text text-anchor="middle" x="393" y="-249.3" font-family="Times New Roman,serif" font-size="14.00">yazdir</text>
</g>
<!-- expr0&#45;&gt;yazdir -->
<g id="edge4" class="edge invis&#45;edge invis&#45;edge_2 invis&#45;edge_3">
<title>expr0&#45;&gt;yazdir</title>
<path fill="none" stroke="black" d="M393,-307.81C393,-299.79 393,-290.05 393,-281.07"/>
<polygon fill="black" stroke="black" points="396.5,-281.03 393,-271.03 389.5,-281.03 396.5,-281.03"/>
</g>
<!-- expr1 -->
<g id="node7" class="node invis&#45;node invis&#45;node_2 invis&#45;node_3">
<title>expr1</title>
<polygon fill="none" stroke="black" points="437.5,-198 348.5,-198 348.5,-162 437.5,-162 437.5,-198"/>
<text text-anchor="middle" x="393" y="-176.3" font-family="Times New Roman,serif" font-size="14.00">print(&#39;yazdir&#39;)</text>
</g>
<!-- yazdir&#45;&gt;expr1 -->
<g id="edge5" class="edge invis&#45;edge invis&#45;edge_2 invis&#45;edge_3">
<title>yazdir&#45;&gt;expr1</title>
<path fill="none" stroke="black" d="M393,-236.59C393,-228.36 393,-217.97 393,-208.4"/>
<polygon fill="black" stroke="black" points="396.5,-208.12 393,-198.12 389.5,-208.12 396.5,-208.12"/>
</g>
<!-- assign3 -->
<g id="node8" class="node invis&#45;node invis&#45;node_2 invis&#45;node_3">
<title>assign3</title>
<ellipse fill="none" stroke="black" cx="393" cy="-107" rx="28.7" ry="18"/>
<text text-anchor="middle" x="393" y="-103.3" font-family="Times New Roman,serif" font-size="14.00">END</text>
</g>
<!-- expr1&#45;&gt;assign3 -->
<g id="edge6" class="edge invis&#45;edge invis&#45;edge_2 invis&#45;edge_3">
<title>expr1&#45;&gt;assign3</title>
<path fill="none" stroke="black" d="M393,-161.81C393,-153.79 393,-144.05 393,-135.07"/>
<polygon fill="black" stroke="black" points="396.5,-135.03 393,-125.03 389.5,-135.03 396.5,-135.03"/>
</g>
<!-- def 2 0 -->
<g id="node11" class="node invis&#45;node invis&#45;node_3">
<title>def 2 0</title>
<ellipse fill="none" stroke="black" cx="393" cy="-34" rx="28.7" ry="18"/>
<text text-anchor="middle" x="393" y="-30.3" font-family="Times New Roman,serif" font-size="14.00">END</text>
</g>
<!-- assign3&#45;&gt;def 2 0 -->
<g id="edge9" class="edge invis&#45;edge invis&#45;edge_3">
<title>assign3&#45;&gt;def 2 0</title>
<path fill="none" stroke="black" d="M393,-88.81C393,-80.79 393,-71.05 393,-62.07"/>
<polygon fill="black" stroke="black" points="396.5,-62.03 393,-52.03 389.5,-62.03 396.5,-62.03"/>
</g>
<!-- assign2 -->
<g id="node9" class="node clickable 3 testfile2.py">
<title>assign2</title>
<polygon fill="none" stroke="black" points="473.5,-490 312.5,-490 312.5,-454 473.5,-454 473.5,-490"/>
<text text-anchor="middle" x="393" y="-468.3" font-family="Times New Roman,serif" font-size="14.00">result = sum(num1,num2)</text>
</g>
<!-- sum -->
<g id="node10" class="node invis&#45;node invis&#45;node_3">
<title>sum</title>
<polygon fill="none" stroke="black" points="421.71,-394.99 416.02,-410.22 393,-417 369.98,-410.22 364.29,-394.99 380.22,-382.78 405.78,-382.78 421.71,-394.99"/>
<text text-anchor="middle" x="393" y="-395.3" font-family="Times New Roman,serif" font-size="14.00">sum</text>
</g>
<!-- assign2&#45;&gt;sum -->
<g id="edge7" class="edge invis&#45;edge invis&#45;edge_3">
<title>assign2&#45;&gt;sum</title>
<path fill="none" stroke="black" d="M393,-453.81C393,-445.79 393,-436.05 393,-427.07"/>
<polygon fill="black" stroke="black" points="396.5,-427.03 393,-417.03 389.5,-427.03 396.5,-427.03"/>
</g>
<!-- assign2&#45;&gt;expr2 -->
<g id="edge17" class="edge">
<title>assign2&#45;&gt;expr2</title>
<path fill="none" stroke="black" d="M359.95,-453.99C341.14,-444.32 317.39,-432.1 297.24,-421.73"/>
<polygon fill="black" stroke="black" points="298.76,-418.58 288.26,-417.11 295.55,-424.8 298.76,-418.58"/>
</g>
<!-- sum&#45;&gt;expr0 -->
<g id="edge8" class="edge invis&#45;edge invis&#45;edge_3">
<title>sum&#45;&gt;expr0</title>
<path fill="none" stroke="black" d="M393,-382.59C393,-374.36 393,-363.97 393,-354.4"/>
<polygon fill="black" stroke="black" points="396.5,-354.12 393,-344.12 389.5,-354.12 396.5,-354.12"/>
</g>
<!-- Start -->
<g id="node12" class="node start">
<title>Start</title>
<ellipse fill="none" stroke="black" cx="250" cy="-924" rx="27.1" ry="18"/>
<text text-anchor="middle" x="250" y="-920.3" font-family="Times New Roman,serif" font-size="14.00">Start</text>
</g>
<!-- import0 -->
<g id="node13" class="node">
<title>import0</title>
<polygon fill="none" stroke="black" points="329,-869 171,-869 171,-833 329,-833 329,-869"/>
<text text-anchor="middle" x="250" y="-847.3" font-family="Times New Roman,serif" font-size="14.00">from testfile2 import sum</text>
</g>
<!-- Start&#45;&gt;import0 -->
<g id="edge10" class="edge">
<title>Start&#45;&gt;import0</title>
<path fill="none" stroke="black" d="M250,-905.81C250,-897.79 250,-888.05 250,-879.07"/>
<polygon fill="black" stroke="black" points="253.5,-879.03 250,-869.03 246.5,-879.03 253.5,-879.03"/>
</g>
<!-- import1 -->
<g id="node14" class="node">
<title>import1</title>
<polygon fill="none" stroke="black" points="339,-796 161,-796 161,-760 339,-760 339,-796"/>
<text text-anchor="middle" x="250" y="-774.3" font-family="Times New Roman,serif" font-size="14.00">from testfile2 import subtract</text>
</g>
<!-- import0&#45;&gt;import1 -->
<g id="edge11" class="edge">
<title>import0&#45;&gt;import1</title>
<path fill="none" stroke="black" d="M250,-832.81C250,-824.79 250,-815.05 250,-806.07"/>
<polygon fill="black" stroke="black" points="253.5,-806.03 250,-796.03 246.5,-806.03 253.5,-806.03"/>
</g>
<!-- assign0 -->
<g id="node15" class="node">
<title>assign0</title>
<polygon fill="none" stroke="black" points="285.5,-723 214.5,-723 214.5,-687 285.5,-687 285.5,-723"/>
<text text-anchor="middle" x="250" y="-701.3" font-family="Times New Roman,serif" font-size="14.00">num1 = 5</text>
</g>
<!-- import1&#45;&gt;assign0 -->
<g id="edge12" class="edge">
<title>import1&#45;&gt;assign0</title>
<path fill="none" stroke="black" d="M250,-759.81C250,-751.79 250,-742.05 250,-733.07"/>
<polygon fill="black" stroke="black" points="253.5,-733.03 250,-723.03 246.5,-733.03 253.5,-733.03"/>
</g>
<!-- assign1 -->
<g id="node16" class="node">
<title>assign1</title>
<polygon fill="none" stroke="black" points="285.5,-650 214.5,-650 214.5,-614 285.5,-614 285.5,-650"/>
<text text-anchor="middle" x="250" y="-628.3" font-family="Times New Roman,serif" font-size="14.00">num2 = 7</text>
</g>
<!-- assign0&#45;&gt;assign1 -->
<g id="edge13" class="edge">
<title>assign0&#45;&gt;assign1</title>
<path fill="none" stroke="black" d="M250,-686.81C250,-678.79 250,-669.05 250,-660.07"/>
<polygon fill="black" stroke="black" points="253.5,-660.03 250,-650.03 246.5,-660.03 253.5,-660.03"/>
</g>
<!-- if 0 0 -->
<g id="node17" class="node">
<title>if 0 0</title>
<polygon fill="none" stroke="black" points="250,-577 162.86,-559 250,-541 337.14,-559 250,-577"/>
<text text-anchor="middle" x="250" y="-555.3" font-family="Times New Roman,serif" font-size="14.00">num1 &gt; num2</text>
</g>
<!-- assign1&#45;&gt;if 0 0 -->
<g id="edge14" class="edge">
<title>assign1&#45;&gt;if 0 0</title>
<path fill="none" stroke="black" d="M250,-613.81C250,-605.79 250,-596.05 250,-587.07"/>
<polygon fill="black" stroke="black" points="253.5,-587.03 250,-577.03 246.5,-587.03 253.5,-587.03"/>
</g>
<!-- if 0 0&#45;&gt;assign4 -->
<g id="edge16" class="edge">
<title>if 0 0&#45;&gt;assign4</title>
<path fill="none" stroke="black" d="M228.59,-545.27C206.4,-532.08 171.27,-511.21 144.47,-495.27"/>
<polygon fill="black" stroke="black" points="146.11,-492.18 135.73,-490.08 142.54,-498.2 146.11,-492.18"/>
<text text-anchor="middle" x="201.5" y="-511.8" font-family="Times New Roman,serif" font-size="14.00">False</text>
</g>
<!-- if 0 0&#45;&gt;assign2 -->
<g id="edge15" class="edge">
<title>if 0 0&#45;&gt;assign2</title>
<path fill="none" stroke="black" d="M271.41,-545.27C293.6,-532.08 328.73,-511.21 355.53,-495.27"/>
<polygon fill="black" stroke="black" points="357.46,-498.2 364.27,-490.08 353.89,-492.18 357.46,-498.2"/>
<text text-anchor="middle" x="343" y="-511.8" font-family="Times New Roman,serif" font-size="14.00">True</text>
</g>
</g>
</svg>
